<svg xmlns="http://www.w3.org/2000/svg" viewBox="0 0 64 64" width="64" height="64">
  <!-- Dark background circle -->
  <circle cx="32" cy="32" r="32" fill="#0a0c0f"/>
  <!-- Cog / gear shape in orange -->
  <path fill="#f97316" d="
    M32 20
    a12 12 0 1 1 0 24
    a12 12 0 0 1 0-24z
    M27.5 18.2l-1.2-3.6-4.5 1.6 1.2 3.6a14.2 14.2 0 0 0-3.1 3.1l-3.6-1.2-1.6 4.5 3.6 1.2a14 14 0 0 0 0 4.4l-3.6 1.2 1.6 4.5 3.6-1.2a14.2 14.2 0 0 0 3.1 3.1l-1.2 3.6 4.5 1.6 1.2-3.6a14 14 0 0 0 4.4 0l1.2 3.6 4.5-1.6-1.2-3.6a14.2 14.2 0 0 0 3.1-3.1l3.6 1.2 1.6-4.5-3.6-1.2a14 14 0 0 0 0-4.4l3.6-1.2-1.6-4.5-3.6 1.2a14.2 14.2 0 0 0-3.1-3.1l1.2-3.6-4.5-1.6-1.2 3.6a14 14 0 0 0-4.4 0z
  "/>
  <!-- Inner circle cutout to make it look like a gear -->
  <circle cx="32" cy="32" r="7" fill="#0a0c0f"/>
  <!-- Letter G in the center -->
  <text x="32" y="37" font-family="Arial, sans-serif" font-size="11" font-weight="bold" fill="#f97316" text-anchor="middle">G</text>
</svg>
